<?xml version="1.0" encoding="UTF-8" standalone="no"?>
<svg
   version="1.0"
   width="569.000000pt"
   height="143.000000pt"
   viewBox="0 0 569.000000 143.000000"
   preserveAspectRatio="xMidYMid meet"
   id="svg305"
   sodipodi:docname="logo_doc.svg"
   inkscape:version="1.2.2 (732a01da63, 2022-12-09, custom)"
   xmlns:inkscape="http://www.inkscape.org/namespaces/inkscape"
   xmlns:sodipodi="http://sodipodi.sourceforge.net/DTD/sodipodi-0.dtd"
   xmlns="http://www.w3.org/2000/svg"
   xmlns:svg="http://www.w3.org/2000/svg">
  <defs
     id="defs309" />
  <sodipodi:namedview
     id="namedview307"
     pagecolor="#ffffff"
     bordercolor="#000000"
     borderopacity="0.25"
     inkscape:showpageshadow="2"
     inkscape:pageopacity="0.0"
     inkscape:pagecheckerboard="0"
     inkscape:deskcolor="#d1d1d1"
     inkscape:document-units="pt"
     showgrid="false"
     inkscape:zoom="2.7782642"
     inkscape:cx="193.28615"
     inkscape:cy="134.43646"
     inkscape:window-width="1920"
     inkscape:window-height="1009"
     inkscape:window-x="0"
     inkscape:window-y="0"
     inkscape:window-maximized="1"
     inkscape:current-layer="g303" />
  <g
     transform="translate(0.000000,143.000000) scale(0.100000,-0.100000)"
     fill="#000000"
     stroke="none"
     id="g303">
    <path
       d="M238 1118 c-32 -11 -49 -52 -36 -89 10 -30 56 -54 86 -45 12 4 88 -23 208 -74 104 -44 196 -80 205 -80 10 0 27 27 47 78 38 90 38 98 13 112 -33 17 -41 12 -67 -46 -15 -34 -29 -54 -37 -51 -7 2 -79 33 -161 68 -116 50 -153 70 -165 91 -20 34 -57 48 -93 36z m60 -30 c17 -17 15 -53 -3 -68 -20 -17 -62 -5 -70 21 -13 40 44 76 73 47z"
       id="path263"
       style="fill:#ffffff" />
    <path
       d="M893 1110 c-29 -12 -46 -46 -39 -81 4 -21 -14 -75 -74 -216 -44 -103 -80 -195 -80 -203 0 -9 31 -28 81 -49 87 -37 111 -35 117 8 3 18 -7 26 -52 47 l-56 25 14 32 c114 270 130 304 150 313 46 20 46 101 1 122 -30 14 -32 14 -62 2z m53 -28 c19 -13 23 -39 8 -61 -26 -36 -74 -21 -74 24 0 36 37 57 66 37z"
       id="path265"
       style="fill:#ffffff" />
    <path
       d="M480 1080 c-8 -18 -9 -35 -4 -39 5 -5 46 -25 92 -44 l82 -36 15 29 c8 16 15 32 15 35 0 6 -131 68 -168 79 -15 5 -22 0 -32 -24z"
       id="path267"
       style="fill:#ffffff" />
    <path
       d="M1350 724 l0 -235 58 -1 c31 0 82 -1 112 -2 43 -1 62 4 88 22 89 64 89 208 1 275 -32 23 -108 34 -138 18 -21 -12 -21 -11 -21 74 l0 85 -50 0 -50 0 0 -236z m191 3 c42 -32 51 -99 19 -140 -40 -51 -90 -43 -116 20 -32 76 39 164 97 120z"
       id="path269" />
    <path
       d="M1730 724 l0 -235 58 1 c31 0 75 -2 97 -6 53 -7 121 28 146 76 27 51 26 137 -4 181 -40 60 -123 84 -189 55 -16 -7 -18 0 -18 78 l0 86 -45 0 -45 0 0 -236z m197 -8 c23 -20 28 -32 28 -71 0 -39 -5 -51 -28 -71 -36 -31 -52 -30 -88 5 -21 22 -29 39 -29 66 0 27 8 44 29 66 36 35 52 36 88 5z"
       id="path271" />
    <path
       d="M290 889 c-18 -33 -8 -50 47 -73 l51 -21 -71 -173 c-43 -104 -76 -172 -84 -172 -17 0 -42 -57 -36 -81 15 -54 90 -65 126 -17 16 21 18 31 9 56 -9 25 0 52 70 222 43 106 77 198 75 204 -4 10 -152 76 -170 76 -3 0 -11 -9 -17 -21z m8 -471 c18 -18 15 -43 -8 -63 -18 -17 -21 -17 -45 -1 -28 18 -30 28 -15 57 12 21 50 25 68 7z"
       id="path273"
       style="fill:#ffffff" />
    <path
       d="M4740 855 l0 -45 -51 0 c-28 0 -60 -5 -72 -11 -16 -9 -22 -9 -25 0 -2 6 -24 11 -48 11 l-44 0 0 -160 0 -160 44 0 44 0 4 104 c2 87 6 108 23 126 15 17 27 21 52 17 19 -4 34 -1 37 6 3 9 5 9 5 0 1 -7 8 -13 16 -13 12 0 15 -14 15 -67 0 -124 34 -183 106 -183 53 0 64 8 64 49 0 34 -2 36 -32 36 l-33 0 -3 83 -3 82 36 0 c34 0 35 1 35 40 0 39 -1 40 -35 40 -35 0 -35 0 -35 45 l0 45 -50 0 -50 0 0 -45z"
       id="path275" />
    <path
       d="M877 758 c-21 -46 -37 -88 -37 -94 0 -11 57 -40 64 -33 6 7 76 172 76 179 0 7 -45 30 -59 30 -4 0 -24 -37 -44 -82z"
       id="path277"
       style="fill:#ffffff" />
    <path
       d="M2190 799 c-62 -25 -100 -85 -100 -157 0 -122 129 -198 242 -143 61 29 91 78 91 146 0 41 -6 63 -24 90 -42 62 -139 92 -209 64z m119 -95 c55 -69 -5 -168 -84 -138 -26 10 -48 62 -40 100 11 64 86 86 124 38z"
       id="path279" />
    <path
       d="M2426 798 c4 -7 29 -44 56 -81 28 -39 46 -73 42 -80 -4 -7 -29 -42 -56 -79 l-48 -68 55 0 c53 0 56 1 81 40 15 22 28 40 30 40 1 0 13 -18 25 -40 22 -39 24 -40 76 -40 61 0 61 -6 -4 86 -24 34 -43 65 -43 69 0 4 25 43 56 86 l55 79 -54 0 c-54 0 -55 -1 -84 -46 l-30 -46 -29 46 c-28 45 -30 46 -82 46 -40 0 -51 -3 -46 -12z"
       id="path281" />
    <path
       d="M2860 799 c-62 -25 -100 -85 -100 -157 0 -54 25 -100 73 -136 42 -31 138 -29 190 3 l38 24 -31 32 c-31 32 -32 33 -51 14 -24 -24 -70 -24 -100 0 -19 15 -24 29 -24 66 0 37 5 51 24 66 30 25 75 24 99 -1 18 -20 19 -20 51 14 36 37 33 44 -32 71 -41 17 -100 19 -137 4z"
       id="path283" />
    <path
       d="M3190 799 c-62 -25 -100 -85 -100 -157 0 -122 129 -198 242 -143 61 29 89 76 89 144 0 41 -6 65 -23 91 -40 63 -137 93 -208 65z m119 -95 c29 -37 27 -89 -4 -119 -29 -30 -64 -32 -96 -6 -19 15 -24 29 -24 66 0 37 5 51 24 66 34 27 75 24 100 -7z"
       id="path285" />
    <path
       d="M3460 650 l0 -160 50 0 50 0 0 108 c0 93 3 111 18 125 23 21 56 22 76 1 13 -12 16 -39 16 -125 l0 -109 50 0 50 0 0 93 c-1 115 -12 173 -38 199 -27 27 -101 35 -141 15 -26 -13 -31 -13 -31 -1 0 10 -13 14 -50 14 l-50 0 0 -160z"
       id="path287" />
    <path
       d="M3782 802 c2 -5 32 -77 67 -161 l65 -152 35 3 35 3 62 145 c34 80 63 151 63 158 1 9 -12 12 -46 10 l-48 -3 -30 -82 c-17 -45 -33 -84 -36 -87 -3 -3 -20 35 -38 84 l-33 90 -50 0 c-27 0 -48 -4 -46 -8z"
       id="path289" />
    <path
       d="M4214 790 c-78 -40 -106 -138 -63 -226 35 -74 139 -105 226 -69 65 27 68 34 32 71 l-32 33 -25 -19 c-14 -11 -38 -20 -53 -20 -28 0 -69 30 -69 50 0 6 45 10 116 10 l117 0 -7 48 c-11 82 -65 133 -148 139 -40 3 -63 -1 -94 -17z m124 -72 c26 -26 13 -38 -41 -38 -63 0 -73 7 -50 32 18 20 73 24 91 6z"
       id="path291" />
    <path
       d="M5048 790 c-74 -40 -101 -152 -56 -231 41 -73 147 -100 236 -59 48 22 52 37 17 70 -25 23 -26 23 -54 7 -16 -9 -40 -17 -53 -17 -29 0 -68 26 -68 46 0 11 22 14 116 14 l116 0 -7 43 c-15 92 -64 139 -152 144 -44 2 -67 -2 -95 -17z m130 -72 c27 -27 13 -38 -48 -38 -33 0 -60 3 -60 7 0 34 81 58 108 31z"
       id="path293" />
    <path
       d="M5340 650 l0 -160 45 0 45 0 0 89 c0 133 21 173 85 157 20 -5 23 -1 28 27 2 17 3 35 0 40 -6 11 -62 8 -86 -4 -16 -9 -22 -9 -25 0 -2 6 -24 11 -48 11 l-44 0 0 -160z"
       id="path295" />
    <path
       d="M261 778 c-5 -13 -20 -51 -35 -85 -14 -34 -26 -65 -26 -67 0 -3 14 -13 31 -22 38 -19 35 -21 80 90 31 76 32 79 14 92 -28 21 -54 17 -64 -8z"
       id="path297"
       style="fill:#ffffff" />
    <path
       d="M431 529 c-37 -88 -35 -114 10 -114 18 0 29 11 49 51 l25 51 168 -71 c92 -39 167 -76 167 -82 0 -21 40 -47 71 -46 39 1 57 17 65 58 9 47 -21 77 -82 79 -35 1 -100 23 -233 78 -101 43 -189 77 -195 77 -6 0 -26 -37 -45 -81z m517 -111 c15 -15 15 -51 0 -66 -19 -19 -45 -14 -62 10 -20 28 -20 33 0 52 18 19 45 21 62 4z"
       id="path299"
       style="fill:#ffffff" />
    <path
       d="M511 438 c-6 -17 -10 -32 -9 -33 19 -16 181 -76 188 -69 5 5 11 21 15 35 6 25 2 28 -80 63 -48 20 -91 36 -95 36 -4 0 -13 -14 -19 -32z"
       id="path301"
       style="fill:#ffffff" />
  </g>
</svg>
